<svg id="Layer_1" data-name="Layer 1" xmlns="http://www.w3.org/2000/svg" viewBox="0 0 200 80"><defs><style>.cls-1{fill:#fff;}</style></defs><polyline class="cls-1" points="42.18 19.01 16.54 37.18 30.75 55.01"/><path class="cls-1" d="M25.2,28.7C24.24,28.7,2,40.24,2,40.24L24.36,51.78,13.6,37Z"/><polygon class="cls-1" points="43.73 19.01 32.73 54.96 40.87 51.78 43.73 19.01"/><polygon class="cls-1" points="43.26 40.24 43.26 52.38 34.65 55.73 46.48 60.99 43.26 40.24"/><path class="cls-1" d="M62.2,35.84a2,2,0,0,0-.64,1.5V49.68a2,2,0,0,0,.64,1.5,2.1,2.1,0,0,0,1.47.58,2,2,0,0,0,1.49-.62h0a2.1,2.1,0,0,0,.56-1.45V37.34a2.06,2.06,0,0,0-3.52-1.5Z"/><path class="cls-1" d="M62.06,30a2.26,2.26,0,0,0,0,3.25,2.31,2.31,0,0,0,1.61.64,2.16,2.16,0,0,0,1.61-.68,2.26,2.26,0,0,0,.63-1.59A2.3,2.3,0,0,0,65.28,30,2.32,2.32,0,0,0,62.06,30Z"/><path class="cls-1" d="M82.52,37.34a6.85,6.85,0,0,0-2.24-1.62,7.85,7.85,0,0,0-6.44.23,5,5,0,0,0-.78.45,2,2,0,0,0-.43-.56,2.1,2.1,0,0,0-2.92,0,2.08,2.08,0,0,0-.56,1.46V49.68a2,2,0,0,0,.6,1.48,2.15,2.15,0,0,0,3,0,2.06,2.06,0,0,0,.6-1.48v-7a3.65,3.65,0,0,1,.27-1.38,3.41,3.41,0,0,1,.76-1.13,3.86,3.86,0,0,1,4.11-.8,2.94,2.94,0,0,1,1,.7A2.79,2.79,0,0,1,80,41.1a4.75,4.75,0,0,1,.22,1.49v7.09a2.08,2.08,0,0,0,.56,1.46,2,2,0,0,0,1.49.62,2.1,2.1,0,0,0,1.47-.58,2,2,0,0,0,.64-1.5V42.62a8.51,8.51,0,0,0-.48-2.89A7.07,7.07,0,0,0,82.52,37.34Z"/><path class="cls-1" d="M99.64,28.49A2,2,0,0,0,99,30v6.48l-.5-.31a8.18,8.18,0,0,0-7.1-.36,8,8,0,0,0-2.62,1.76,8.19,8.19,0,0,0-1.76,2.65,8.54,8.54,0,0,0-.64,3.32,8.45,8.45,0,0,0,.64,3.31,8.13,8.13,0,0,0,1.76,2.66,8,8,0,0,0,2.62,1.76,8.14,8.14,0,0,0,3.23.65A8,8,0,0,0,98.48,51q.38-.21.72-.45a2,2,0,0,0,.44.65,2.15,2.15,0,0,0,3,0h0a2.06,2.06,0,0,0,.6-1.48V30a2,2,0,0,0-.6-1.48A2.15,2.15,0,0,0,99.64,28.49Zm-9,15a5.26,5.26,0,0,1,.32-1.86,4.09,4.09,0,0,1,.86-1.37,3.78,3.78,0,0,1,1.32-.88,4.23,4.23,0,0,1,1.68-.33,4.15,4.15,0,0,1,1.69.34,3.69,3.69,0,0,1,1.33.92,4.52,4.52,0,0,1,.9,1.42,4.86,4.86,0,0,1,0,3.52,4.52,4.52,0,0,1-.9,1.42,3.82,3.82,0,0,1-1.33.92,4.42,4.42,0,0,1-3.37,0,3.92,3.92,0,0,1-1.32-.88,4,4,0,0,1-.86-1.38A5.17,5.17,0,0,1,90.61,43.51Z"/><path class="cls-1" d="M119.62,37.56a2.05,2.05,0,0,0-.52-1.37,2,2,0,0,0-1.47-.65h-9.8a2,2,0,0,0-1.36.53,1.87,1.87,0,0,0-.6,1.4,1.84,1.84,0,0,0,.6,1.39,1.94,1.94,0,0,0,1.36.53h5.71l-7.29,8.91a2.1,2.1,0,0,0-.41,1.25,1.85,1.85,0,0,0,.7,1.54,2.26,2.26,0,0,0,1.35.42h9.74a1.91,1.91,0,0,0,1.93-1.93,1.93,1.93,0,0,0-.56-1.37,1.89,1.89,0,0,0-1.37-.55h-5.71l7.25-8.87A1.9,1.9,0,0,0,119.62,37.56Z"/><path class="cls-1" d="M134.3,37.56a2,2,0,0,0-.53-1.37,1.92,1.92,0,0,0-1.46-.65H122.5a1.94,1.94,0,0,0-1.35.53,1.87,1.87,0,0,0-.6,1.4,1.84,1.84,0,0,0,.6,1.39,1.9,1.9,0,0,0,1.35.53h5.72l-7.29,8.91a2.1,2.1,0,0,0-.41,1.25,1.85,1.85,0,0,0,.7,1.54,2.24,2.24,0,0,0,1.35.42h9.74a1.9,1.9,0,0,0,1.92-1.93,1.92,1.92,0,0,0-.55-1.37,1.89,1.89,0,0,0-1.37-.55H126.6l7.24-8.87A1.86,1.86,0,0,0,134.3,37.56Z"/><path class="cls-1" d="M155.43,30.94a1.75,1.75,0,0,1-.41,1.11,1.31,1.31,0,0,1-1.11.54,1.88,1.88,0,0,1-.91-.24,9.06,9.06,0,0,0-4.51-1.18A8.79,8.79,0,0,0,144,32.29a7.73,7.73,0,0,0-3,3.11,9.56,9.56,0,0,0-1.08,4.6,9.78,9.78,0,0,0,1.12,4.82,7.63,7.63,0,0,0,3.06,3.08A9,9,0,0,0,148.49,49,8.56,8.56,0,0,0,153,47.75a1.87,1.87,0,0,1,.88-.21,1.42,1.42,0,0,1,1.18.58,1.66,1.66,0,0,1,.4,1.07,1.37,1.37,0,0,1-.22.76,1.52,1.52,0,0,1-.59.56,12.72,12.72,0,0,1-2.94,1.18,12.54,12.54,0,0,1-3.22.44,12.74,12.74,0,0,1-6-1.45,11,11,0,0,1-4.38-4.21A12.47,12.47,0,0,1,136.46,40,12.23,12.23,0,0,1,138,33.85a11.43,11.43,0,0,1,4.31-4.31,12.69,12.69,0,0,1,12.28.05A1.43,1.43,0,0,1,155.43,30.94Z"/><path class="cls-1" d="M178.75,28.67a1.47,1.47,0,0,1,.47,1.12V50.17a1.62,1.62,0,0,1-.45,1.15,1.6,1.6,0,0,1-1.2.47,1.64,1.64,0,0,1-1.21-.46,1.55,1.55,0,0,1-.47-1.16V34.58l-6.54,9.9a1.81,1.81,0,0,1-.59.5,1.1,1.1,0,0,1-.72.17,1.08,1.08,0,0,1-.69-.17,1.92,1.92,0,0,1-.59-.5l-6.57-10.21v15.9a1.64,1.64,0,0,1-.42,1.16,1.43,1.43,0,0,1-1.13.46,1.39,1.39,0,0,1-1.09-.46,1.64,1.64,0,0,1-.42-1.16V29.79a1.58,1.58,0,0,1,.47-1.12,1.55,1.55,0,0,1,1.18-.49,1.63,1.63,0,0,1,.79.2,1.55,1.55,0,0,1,.62.54l8,12.09,8.08-12.09a1.6,1.6,0,0,1,1.35-.74A1.66,1.66,0,0,1,178.75,28.67Z"/><path class="cls-1" d="M185.44,51.43a11,11,0,0,1-3.61-2.24,1.78,1.78,0,0,1-.71-1.38,1.53,1.53,0,0,1,.48-1.09,1.47,1.47,0,0,1,1.11-.49,1.39,1.39,0,0,1,1,.37,9.48,9.48,0,0,0,2.77,1.84,8.56,8.56,0,0,0,3.25.59,6.34,6.34,0,0,0,3.59-1,2.88,2.88,0,0,0,1.47-2.46,3.16,3.16,0,0,0-1.47-2.71,13.12,13.12,0,0,0-4.36-1.6A11.7,11.7,0,0,1,183.6,39a5.61,5.61,0,0,1-1.87-4.48A5.93,5.93,0,0,1,182.78,31a6.68,6.68,0,0,1,2.89-2.31,10.36,10.36,0,0,1,4.18-.81,11.45,11.45,0,0,1,3.94.68,8.45,8.45,0,0,1,3,1.78,2,2,0,0,1,.77,1.45A1.57,1.57,0,0,1,196,33.33a1.11,1.11,0,0,1-.77-.27,7,7,0,0,0-2.43-1.48,8,8,0,0,0-3-.61,6.16,6.16,0,0,0-3.59.93,3,3,0,0,0,0,5,12.8,12.8,0,0,0,4,1.48,20.58,20.58,0,0,1,4.29,1.35,6,6,0,0,1,2.58,2.15,6.42,6.42,0,0,1,.91,3.61,5.78,5.78,0,0,1-1.1,3.47,7.17,7.17,0,0,1-3,2.35,10,10,0,0,1-4.14.85A12.54,12.54,0,0,1,185.44,51.43Z"/></svg>